<svg width="493" height="395" viewBox="0 0 493 395" fill="none" xmlns="http://www.w3.org/2000/svg" aria-hidden="true">
<g id="logo full">
<path id="Vector" d="M117.157 86.0231C120.494 85.1372 126.762 84.5535 130.34 84.1816C159.961 81.3098 189.736 87.8178 215.458 102.786C234.071 113.571 250.945 128.279 266.675 142.834C267.3 143.411 270.115 145.915 270.456 146.488C273.88 149.372 278.249 154.091 281.533 157.338L306.4 182.336C318.37 194.204 332.232 207.653 347.648 214.921C345.654 214.591 337.98 211.666 335.488 210.875C326.129 207.814 316.401 206.024 306.565 205.554C293.519 204.962 282.261 206.874 269.392 208.258C252.581 210.067 236.037 209.36 219.495 205.863C205.175 202.836 193.303 197.681 180.145 191.256C169.344 185.982 158.149 180.178 146.598 176.715C144.638 176.127 137.069 174.32 135.253 175.344C126.611 172.792 114.573 175.635 106.991 180.009C84.5655 192.944 73.9303 219.059 80.0951 244.132C80.6054 246.208 82.7059 251.466 82.8497 252.988C91.793 272.704 106.1 284.862 127.287 289.8C104.051 288.012 85.6631 281.04 66.417 267.806C61.0066 264.085 53.0756 257.765 48.753 252.98C46.6911 251.249 43.4374 247.527 41.6507 245.403C30.9908 232.933 23.8624 217.838 21.0059 201.684C17.9232 184.464 18.7681 168.771 26.1024 152.593C27.4744 149.566 29.2008 146.007 31.0799 143.301C40.0711 126.689 59.6836 109.79 76.0865 100.865C87.5894 94.6069 104.116 87.8527 117.157 86.0231Z" fill="url(#paint0_linear_0_1)"/>
<path id="Vector_2" d="M6.88916 180.677L8.6899 179.828L8.99628 179.957L9.37912 181.606C6.56711 203.21 13.8933 227.306 26.6553 244.781C46.8517 272.809 80.036 290.823 113.859 295.953C146.243 300.864 190.146 288.955 216.288 269.484C242.19 292.76 279.327 317.437 313.824 324.693C306.809 327.356 301.263 330.332 294.548 333.699C287.386 337.288 280.189 340.812 272.961 344.268C222.516 368.271 168.077 389.909 111.748 373.606C71.7437 361.781 38.1135 334.482 18.3187 297.765C13.8031 289.475 10.3745 280.973 7.47019 272.007C-2.46699 241.338 -2.17254 211.546 6.88916 180.677Z" fill="url(#paint1_radial_0_1)"/>
<path id="Vector_3" d="M460.41 79.0703L460.887 79.2951C464.187 83.9489 474.047 98.4863 475.74 103.74C473.903 105.026 471.316 106.465 469.344 107.623L469.011 107.711C468.315 107.16 467.619 105.292 467.185 104.424C463.442 96.9527 458.785 90.1998 453.969 83.4148L460.41 79.0703Z" fill="#099FAE"/>
<path id="Vector_4" d="M434.19 49.769C437.95 52.3131 451.925 66.5824 454.26 70.3654C453.182 71.5614 450.083 74.1743 448.807 75.1372L448.379 75.1925C447.428 74.5189 446.545 73.4344 445.751 72.5473C440.542 66.7154 434.78 61.5093 429.057 56.1925C430.755 54.0425 432.467 51.9012 434.19 49.769Z" fill="#099FAE"/>
<path id="Vector_5" d="M403.357 29.2256C406.475 30.6855 415.943 36.4402 418.608 38.33C421.564 39.9962 423.533 41.5712 426.152 43.7413C425.12 45.5782 423.216 48.407 421.959 50.1737C420.924 49.6234 410.609 42.7706 410.124 42.1855C407.234 40.7693 402.623 37.879 399.486 36.171C400.667 33.5606 401.615 31.5021 403.357 29.2256Z" fill="#099FAE"/>
<path id="Vector_6" d="M478.755 113.72L479.37 113.92C482.295 117.612 487.404 134.713 488.03 140.007C486.142 140.331 484.048 140.555 482.119 140.836C481.35 140.838 481.233 140.883 480.491 140.635C478.156 131.961 476.222 125.092 472.773 116.624C475.041 115.639 476.601 114.921 478.755 113.72Z" fill="#099FAE"/>
<path id="Vector_7" d="M488.113 150.121C488.961 150.019 488.928 149.984 489.735 150.207C491.902 153.646 492.049 173.014 491.791 177.728C490.044 177.625 489.15 177.572 487.422 177.232C486.368 177.111 485.52 176.949 484.475 176.748C484.456 166.668 484.112 161.508 482.906 151.536C484.513 150.98 486.444 150.542 488.113 150.121Z" fill="#099FAE"/>
<path id="Vector_8" d="M369.465 16.7314C375.836 18.3863 388.923 21.9338 394.495 25.2965C393.644 27.7409 392.85 29.0797 391.48 31.2552L391.187 31.4935C390.158 31.6208 384.372 29.2609 383.058 28.7541C377.86 26.7481 372.875 25.4055 367.525 23.9355C367.899 21.3517 368.547 19.1582 369.465 16.7314Z" fill="#099FAE"/>
<path id="Vector_9" d="M483.999 186.817C485.651 186.766 489.581 187.128 490.635 188.417C491.483 192.694 486.464 209.699 485.177 214.302C482.392 213.477 480.718 212.555 478.158 211.177C479.163 207.076 480.702 202.871 481.693 198.705C482.639 194.722 483.156 190.805 483.999 186.817Z" fill="#099FAE"/>
<path id="Vector_10" d="M319.303 12.3C320.652 12.1728 322.326 12.2397 323.704 12.2514C323.959 14.7781 323.899 17.2749 323.889 19.8123C316.989 19.9477 310.734 20.3244 303.927 21.4319C302.608 21.6389 301.294 21.8686 299.983 22.1209C299.252 19.6315 298.956 17.326 298.672 14.7606C306.062 13.501 311.883 12.927 319.303 12.3Z" fill="#099FAE"/>
<path id="Vector_11" d="M333.857 12.3148C340.689 12.1316 352.112 13.7546 358.966 14.7865C358.92 17.1693 358.614 19.4436 358.215 21.7869C357.043 21.9805 349.051 20.6272 346.895 20.4776C342.615 20.1803 338.17 19.9624 333.871 19.7228L333.857 12.3148Z" fill="#099FAE"/>
<path id="Vector_12" d="M194.124 54.4102C195.747 54.5794 198.221 59.276 199.017 60.6403C191.682 64.5912 186.136 69.0469 179.695 72.6541C177.821 70.8939 175.938 69.1442 174.045 67.405C180.21 63.0525 187.585 58.1877 194.124 54.4102Z" fill="#099FAE"/>
<path id="Vector_13" d="M474.516 220.875C476.588 221.282 479.262 222.861 481.112 223.893C478.506 229.775 472.108 240.117 468.735 246.066C467.435 246.134 463.954 243.31 462.676 242.392C466.921 235.389 470.873 228.21 474.516 220.875Z" fill="#099FAE"/>
<path id="Vector_14" d="M224.595 39.0288C225.596 39.6057 227.463 44.1636 227.957 45.406C222.384 48.1137 216.782 51.079 211.36 54.0789C209.957 54.8552 208.777 55.697 207.262 56.304C205.955 54.2932 204.44 51.5838 203.191 49.4788C210.014 46.0325 217.647 42.1206 224.595 39.0288Z" fill="#099FAE"/>
<path id="Vector_15" d="M255.638 26.0044L256.15 26.0982C257.182 27.0116 258.236 31.1721 258.699 32.7005C257.51 33.2222 255.914 33.7666 254.648 34.181C248.491 36.1964 242.835 39.2782 236.906 41.767C235.879 39.4826 234.35 37.6834 233.658 34.9719C240.852 31.6667 248.186 28.6749 255.638 26.0044Z" fill="#099FAE"/>
<path id="Vector_16" d="M287.793 16.8652C288.172 16.7941 288.364 16.8299 288.757 16.84C289.797 18.191 290.052 22.0587 290.271 23.8984C281.709 25.8495 276.678 27.1978 268.389 29.6582L268.208 29.6693C267.338 28.7761 266.309 24.4675 265.93 23.0268C271.618 20.523 281.739 18.2149 287.793 16.8652Z" fill="#099FAE"/>
<path id="Vector_17" d="M263.854 114.583C266.78 112.499 274.746 108.215 278.086 106.433C305.137 91.9969 337.177 84.8153 367.706 89.6473C374.007 90.6443 379.062 91.3041 385.36 93.2352C389.881 93.9183 395.756 96.1926 400.066 97.8199C420.865 105.67 439.022 118.877 452.339 136.736C472.434 163.692 483.358 219.726 461.92 254.827C460.802 256.659 458.499 259.274 457.055 260.955C448.178 271.216 437.941 280.217 426.624 287.706C425.389 288.513 422.016 290.691 420.803 291.086C420.304 291.663 414.691 294.762 413.567 295.376C397.095 304.39 378.921 309.872 360.249 311.522C333.054 313.927 306.854 305.504 282.992 293.071C280.698 291.877 270.68 286.555 269.009 285.125C265.818 283.67 259.479 279.31 256.312 277.059C225.852 255.403 199.846 227.458 172.945 201.677C167.59 196.545 162.369 192.308 156.911 187.508C155.47 186.908 150.497 182.757 148.855 181.684C144.142 178.604 140.415 177.183 135.252 175.343C137.069 174.32 144.638 176.127 146.597 176.715C158.149 180.178 169.344 185.982 180.145 191.256C193.302 197.681 205.174 202.836 219.494 205.863C236.036 209.36 252.581 210.067 269.391 208.258C282.261 206.873 293.519 204.962 306.565 205.554C316.4 206.024 326.128 207.814 335.487 210.875C337.979 211.666 345.653 214.591 347.647 214.921C360.059 218.813 366.105 219.225 377.935 214.105C389.06 208.414 396.119 200.89 401.564 189.608C414.494 162.996 407.069 132.917 384.87 113.836C374.202 104.669 362.416 100.565 348.766 98.3343C336.102 96.5383 323.693 97.8505 311.37 100.966C309.157 101.525 302.902 103.85 301.518 104.002C295.629 106.844 291.368 108.196 285.2 111.666C279.936 114.626 275.732 117.914 270.978 120.665C269.031 119.23 265.566 116.24 263.854 114.583Z" fill="url(#paint2_linear_0_1)"/>
</g>
<defs>
<linearGradient id="paint0_linear_0_1" x1="183.485" y1="83.5188" x2="183.485" y2="289.8" gradientUnits="userSpaceOnUse">
<stop stop-color="#016DB5"/>
<stop offset="1" stop-color="#001627"/>
</linearGradient>
<radialGradient id="paint1_radial_0_1" cx="0" cy="0" r="1" gradientUnits="userSpaceOnUse" gradientTransform="translate(156.839 329.965) rotate(89.8831) scale(49.3149 135.872)">
<stop stop-color="#015186"/>
<stop offset="1" stop-color="#001D55"/>
</radialGradient>
<linearGradient id="paint2_linear_0_1" x1="437.698" y1="269.334" x2="288.875" y2="235.761" gradientUnits="userSpaceOnUse">
<stop stop-color="#00EFC8"/>
<stop offset="1" stop-color="#009A9A"/>
</linearGradient>
</defs>
</svg>
