<svg width="493" height="552" viewBox="0 0 493 552" fill="none" xmlns="http://www.w3.org/2000/svg" aria-hidden="true">
<g id="logo full">
<path id="Vector" d="M117.157 86.0231C120.494 85.1372 126.762 84.5535 130.34 84.1816C159.961 81.3098 189.736 87.8178 215.458 102.786C234.071 113.571 250.945 128.279 266.675 142.834C267.3 143.411 270.115 145.915 270.456 146.488C273.88 149.372 278.249 154.091 281.533 157.338L306.4 182.336C318.37 194.204 332.232 207.653 347.648 214.921C345.654 214.591 337.98 211.666 335.488 210.875C326.129 207.814 316.401 206.024 306.565 205.554C293.519 204.962 282.261 206.874 269.392 208.258C252.581 210.067 236.037 209.36 219.495 205.863C205.175 202.836 193.303 197.681 180.145 191.256C169.344 185.982 158.149 180.178 146.598 176.715C144.638 176.127 137.069 174.32 135.253 175.344C126.611 172.792 114.573 175.635 106.991 180.009C84.5655 192.944 73.9303 219.059 80.0951 244.132C80.6054 246.208 82.7059 251.466 82.8497 252.988C91.793 272.704 106.1 284.862 127.287 289.8C104.051 288.012 85.6631 281.04 66.417 267.806C61.0066 264.085 53.0756 257.765 48.753 252.98C46.6911 251.249 43.4374 247.527 41.6507 245.403C30.9908 232.933 23.8624 217.838 21.0059 201.684C17.9232 184.464 18.7681 168.771 26.1024 152.593C27.4744 149.566 29.2008 146.007 31.0799 143.301C40.0711 126.689 59.6836 109.79 76.0865 100.865C87.5894 94.6069 104.116 87.8527 117.157 86.0231Z" fill="url(#paint0_linear_0_1)"/>
<path id="Vector_2" d="M6.88916 180.677L8.6899 179.828L8.99628 179.957L9.37912 181.606C6.56711 203.21 13.8933 227.306 26.6553 244.781C46.8517 272.809 80.036 290.823 113.859 295.953C146.243 300.864 190.146 288.955 216.288 269.484C242.19 292.76 279.327 317.437 313.824 324.693C306.809 327.356 301.263 330.332 294.548 333.699C287.386 337.288 280.189 340.812 272.961 344.268C222.516 368.271 168.077 389.909 111.748 373.606C71.7437 361.781 38.1135 334.482 18.3187 297.765C13.8031 289.475 10.3745 280.973 7.47019 272.007C-2.46699 241.338 -2.17254 211.546 6.88916 180.677Z" fill="url(#paint1_radial_0_1)"/>
<path id="Vector_3" d="M460.41 79.0703L460.887 79.2951C464.187 83.9489 474.047 98.4863 475.74 103.74C473.903 105.026 471.316 106.465 469.344 107.623L469.011 107.711C468.315 107.16 467.619 105.292 467.185 104.424C463.442 96.9527 458.785 90.1998 453.969 83.4148L460.41 79.0703Z" fill="#099FAE"/>
<path id="Vector_4" d="M434.19 49.769C437.95 52.3131 451.925 66.5824 454.26 70.3654C453.182 71.5614 450.083 74.1743 448.807 75.1372L448.379 75.1925C447.428 74.5189 446.545 73.4344 445.751 72.5473C440.542 66.7154 434.78 61.5093 429.057 56.1925C430.755 54.0425 432.467 51.9012 434.19 49.769Z" fill="#099FAE"/>
<path id="Vector_5" d="M403.357 29.2256C406.475 30.6855 415.943 36.4402 418.608 38.33C421.564 39.9962 423.533 41.5712 426.152 43.7413C425.12 45.5782 423.216 48.407 421.959 50.1737C420.924 49.6234 410.609 42.7706 410.124 42.1855C407.234 40.7693 402.623 37.879 399.486 36.171C400.667 33.5606 401.615 31.5021 403.357 29.2256Z" fill="#099FAE"/>
<path id="Vector_6" d="M478.755 113.72L479.37 113.92C482.295 117.612 487.404 134.713 488.03 140.007C486.142 140.331 484.048 140.555 482.119 140.836C481.35 140.838 481.233 140.883 480.491 140.635C478.156 131.961 476.222 125.092 472.773 116.624C475.041 115.639 476.601 114.921 478.755 113.72Z" fill="#099FAE"/>
<path id="Vector_7" d="M488.113 150.121C488.961 150.019 488.928 149.984 489.735 150.207C491.902 153.646 492.049 173.014 491.791 177.728C490.044 177.625 489.15 177.572 487.422 177.232C486.368 177.111 485.52 176.949 484.475 176.748C484.456 166.668 484.112 161.508 482.906 151.536C484.513 150.98 486.444 150.542 488.113 150.121Z" fill="#099FAE"/>
<path id="Vector_8" d="M369.465 16.7314C375.836 18.3863 388.923 21.9338 394.495 25.2965C393.644 27.7409 392.85 29.0797 391.48 31.2552L391.187 31.4935C390.158 31.6208 384.372 29.2609 383.058 28.7541C377.86 26.7481 372.875 25.4055 367.525 23.9355C367.899 21.3517 368.547 19.1582 369.465 16.7314Z" fill="#099FAE"/>
<path id="Vector_9" d="M483.999 186.817C485.651 186.766 489.581 187.128 490.635 188.417C491.483 192.694 486.464 209.699 485.177 214.302C482.392 213.477 480.718 212.555 478.158 211.177C479.163 207.076 480.702 202.871 481.693 198.705C482.639 194.722 483.156 190.805 483.999 186.817Z" fill="#099FAE"/>
<path id="Vector_10" d="M319.303 12.3C320.652 12.1728 322.326 12.2397 323.704 12.2514C323.959 14.7781 323.899 17.2749 323.889 19.8123C316.989 19.9477 310.734 20.3244 303.927 21.4319C302.608 21.6389 301.294 21.8686 299.983 22.1209C299.252 19.6315 298.956 17.326 298.672 14.7606C306.062 13.501 311.883 12.927 319.303 12.3Z" fill="#099FAE"/>
<path id="Vector_11" d="M333.857 12.3148C340.689 12.1316 352.112 13.7546 358.966 14.7865C358.92 17.1693 358.614 19.4436 358.215 21.7869C357.043 21.9805 349.051 20.6272 346.895 20.4776C342.615 20.1803 338.17 19.9624 333.871 19.7228L333.857 12.3148Z" fill="#099FAE"/>
<path id="Vector_12" d="M194.124 54.4102C195.747 54.5794 198.221 59.276 199.017 60.6403C191.682 64.5912 186.136 69.0469 179.695 72.6541C177.821 70.8939 175.938 69.1442 174.045 67.405C180.21 63.0525 187.585 58.1877 194.124 54.4102Z" fill="#099FAE"/>
<path id="Vector_13" d="M474.516 220.875C476.588 221.282 479.262 222.861 481.112 223.893C478.506 229.775 472.108 240.117 468.735 246.066C467.435 246.134 463.954 243.31 462.676 242.392C466.921 235.389 470.873 228.21 474.516 220.875Z" fill="#099FAE"/>
<path id="Vector_14" d="M224.595 39.0288C225.596 39.6057 227.463 44.1636 227.957 45.406C222.384 48.1137 216.782 51.079 211.36 54.0789C209.957 54.8552 208.777 55.697 207.262 56.304C205.955 54.2932 204.44 51.5838 203.191 49.4788C210.014 46.0325 217.647 42.1206 224.595 39.0288Z" fill="#099FAE"/>
<path id="Vector_15" d="M255.638 26.0044L256.15 26.0982C257.182 27.0116 258.236 31.1721 258.699 32.7005C257.51 33.2222 255.914 33.7666 254.648 34.181C248.491 36.1964 242.835 39.2782 236.906 41.767C235.879 39.4826 234.35 37.6834 233.658 34.9719C240.852 31.6667 248.186 28.6749 255.638 26.0044Z" fill="#099FAE"/>
<path id="Vector_16" d="M287.793 16.8652C288.172 16.7941 288.364 16.8299 288.757 16.84C289.797 18.191 290.052 22.0587 290.271 23.8984C281.709 25.8495 276.678 27.1978 268.389 29.6582L268.208 29.6693C267.338 28.7761 266.309 24.4675 265.93 23.0268C271.618 20.523 281.739 18.2149 287.793 16.8652Z" fill="#099FAE"/>
<path id="Vector_17" d="M263.854 114.583C266.78 112.499 274.746 108.215 278.086 106.433C305.137 91.9969 337.177 84.8153 367.706 89.6473C374.007 90.6443 379.062 91.3041 385.36 93.2352C389.881 93.9183 395.756 96.1926 400.066 97.8199C420.865 105.67 439.022 118.877 452.339 136.736C472.434 163.692 483.358 219.726 461.92 254.827C460.802 256.659 458.499 259.274 457.055 260.955C448.178 271.216 437.941 280.217 426.624 287.706C425.389 288.513 422.016 290.691 420.803 291.086C420.304 291.663 414.691 294.762 413.567 295.376C397.095 304.39 378.921 309.872 360.249 311.522C333.054 313.927 306.854 305.504 282.992 293.071C280.698 291.877 270.68 286.555 269.009 285.125C265.818 283.67 259.479 279.31 256.312 277.059C225.852 255.403 199.846 227.458 172.945 201.677C167.59 196.545 162.369 192.308 156.911 187.508C155.47 186.908 150.497 182.757 148.855 181.684C144.142 178.604 140.415 177.183 135.252 175.343C137.069 174.32 144.638 176.127 146.597 176.715C158.149 180.178 169.344 185.982 180.145 191.256C193.302 197.681 205.174 202.836 219.494 205.863C236.036 209.36 252.581 210.067 269.391 208.258C282.261 206.873 293.519 204.962 306.565 205.554C316.4 206.024 326.128 207.814 335.487 210.875C337.979 211.666 345.653 214.591 347.647 214.921C360.059 218.813 366.105 219.225 377.935 214.105C389.06 208.414 396.119 200.89 401.564 189.608C414.494 162.996 407.069 132.917 384.87 113.836C374.202 104.669 362.416 100.565 348.766 98.3343C336.102 96.5383 323.693 97.8505 311.37 100.966C309.157 101.525 302.902 103.85 301.518 104.002C295.629 106.844 291.368 108.196 285.2 111.666C279.936 114.626 275.732 117.914 270.978 120.665C269.031 119.23 265.566 116.24 263.854 114.583Z" fill="url(#paint2_linear_0_1)"/>
<path id="Basicware" d="M26.0808 486.362V428.421H49.2797C53.5423 428.421 57.0975 429.053 59.9455 430.316C62.7935 431.58 64.9342 433.334 66.3677 435.579C67.8011 437.804 68.5178 440.369 68.5178 443.274C68.5178 445.537 68.0652 447.527 67.1598 449.243C66.2545 450.941 65.0097 452.337 63.4254 453.43C61.8599 454.506 60.0681 455.269 58.05 455.722V456.288C60.2567 456.382 62.322 457.005 64.2458 458.155C66.1885 459.306 67.7634 460.918 68.9705 462.993C70.1776 465.049 70.7811 467.501 70.7811 470.349C70.7811 473.423 70.0173 476.167 68.4895 478.581C66.9806 480.977 64.7456 482.872 61.7845 484.268C58.8233 485.664 55.1737 486.362 50.8357 486.362H26.0808ZM38.3309 476.346H48.3178C51.7316 476.346 54.2212 475.696 55.7867 474.394C57.3522 473.074 58.1349 471.32 58.1349 469.132C58.1349 467.529 57.7482 466.114 56.9749 464.888C56.2016 463.662 55.0983 462.701 53.6649 462.003C52.2503 461.305 50.5622 460.956 48.6007 460.956H38.3309V476.346ZM38.3309 452.667H47.4125C49.0911 452.667 50.5811 452.374 51.8825 451.79C53.2028 451.186 54.2401 450.337 54.9945 449.243C55.7678 448.149 56.1545 446.839 56.1545 445.311C56.1545 443.217 55.4095 441.529 53.9195 440.247C52.4483 438.964 50.3548 438.323 47.6388 438.323H38.3309V452.667ZM90.0411 487.182C87.2686 487.182 84.7978 486.701 82.6288 485.739C80.4598 484.758 78.7435 483.316 77.4798 481.411C76.235 479.487 75.6125 477.091 75.6125 474.225C75.6125 471.81 76.0558 469.783 76.9422 468.142C77.8287 466.501 79.0358 465.181 80.5635 464.181C82.0913 463.182 83.8265 462.427 85.7691 461.918C87.7307 461.409 89.7865 461.05 91.9367 460.843C94.464 460.579 96.501 460.334 98.0476 460.107C99.5942 459.862 100.716 459.504 101.414 459.032C102.112 458.561 102.461 457.863 102.461 456.939V456.769C102.461 454.977 101.895 453.591 100.764 452.61C99.6508 451.629 98.0664 451.139 96.0106 451.139C93.8416 451.139 92.1158 451.62 90.8333 452.582C89.5508 453.525 88.702 454.713 88.2871 456.146L77.1403 455.241C77.7061 452.601 78.8189 450.318 80.4787 448.395C82.1384 446.452 84.2791 444.962 86.9008 443.925C89.5413 442.868 92.5968 442.34 96.0672 442.34C98.4814 442.34 100.792 442.623 102.999 443.189C105.224 443.755 107.195 444.632 108.911 445.82C110.647 447.008 112.014 448.536 113.014 450.403C114.013 452.252 114.513 454.468 114.513 457.052V486.362H103.083V480.336H102.744C102.046 481.693 101.112 482.891 99.9431 483.929C98.7737 484.947 97.3686 485.749 95.7277 486.333C94.0868 486.899 92.1913 487.182 90.0411 487.182ZM93.4927 478.864C95.2656 478.864 96.8311 478.515 98.189 477.818C99.547 477.101 100.613 476.139 101.386 474.932C102.159 473.725 102.546 472.357 102.546 470.83V466.218C102.169 466.463 101.65 466.69 100.99 466.897C100.349 467.086 99.6225 467.265 98.8115 467.435C98.0004 467.586 97.1894 467.727 96.3784 467.859C95.5674 467.972 94.8318 468.076 94.1717 468.17C92.7571 468.378 91.5217 468.708 90.4655 469.16C89.4093 469.613 88.5888 470.226 88.0042 470.999C87.4195 471.754 87.1271 472.697 87.1271 473.829C87.1271 475.469 87.7212 476.724 88.9095 477.591C90.1166 478.44 91.6443 478.864 93.4927 478.864ZM159.143 455.298L148.11 455.977C147.921 455.034 147.516 454.185 146.893 453.43C146.271 452.657 145.45 452.044 144.432 451.591C143.432 451.12 142.235 450.884 140.839 450.884C138.972 450.884 137.397 451.28 136.114 452.072C134.832 452.846 134.19 453.883 134.19 455.184C134.19 456.222 134.605 457.099 135.435 457.816C136.265 458.532 137.689 459.108 139.707 459.541L147.572 461.126C151.797 461.993 154.947 463.389 157.022 465.313C159.096 467.237 160.134 469.764 160.134 472.895C160.134 475.743 159.294 478.242 157.616 480.392C155.956 482.542 153.674 484.221 150.769 485.428C147.883 486.616 144.555 487.21 140.782 487.21C135.03 487.21 130.447 486.013 127.033 483.617C123.638 481.203 121.648 477.921 121.063 473.772L132.917 473.15C133.276 474.904 134.143 476.243 135.52 477.167C136.897 478.072 138.661 478.525 140.811 478.525C142.923 478.525 144.621 478.119 145.903 477.308C147.204 476.478 147.865 475.413 147.883 474.111C147.865 473.017 147.403 472.122 146.497 471.424C145.592 470.707 144.196 470.16 142.31 469.783L134.785 468.283C130.541 467.435 127.382 465.964 125.307 463.87C123.251 461.776 122.223 459.108 122.223 455.863C122.223 453.072 122.978 450.667 124.487 448.649C126.014 446.631 128.155 445.075 130.909 443.981C133.681 442.887 136.925 442.34 140.641 442.34C146.129 442.34 150.449 443.5 153.598 445.82C156.767 448.14 158.615 451.299 159.143 455.298ZM166.846 486.362V442.906H178.899V486.362H166.846ZM172.901 437.304C171.109 437.304 169.572 436.71 168.289 435.522C167.026 434.315 166.394 432.872 166.394 431.193C166.394 429.534 167.026 428.11 168.289 426.921C169.572 425.714 171.109 425.111 172.901 425.111C174.693 425.111 176.22 425.714 177.484 426.921C178.767 428.11 179.408 429.534 179.408 431.193C179.408 432.872 178.767 434.315 177.484 435.522C176.22 436.71 174.693 437.304 172.901 437.304ZM207.311 487.21C202.86 487.21 199.031 486.267 195.825 484.381C192.637 482.476 190.185 479.836 188.469 476.46C186.771 473.083 185.923 469.198 185.923 464.804C185.923 460.352 186.781 456.448 188.497 453.091C190.232 449.715 192.694 447.084 195.881 445.198C199.069 443.293 202.86 442.34 207.254 442.34C211.045 442.34 214.365 443.029 217.213 444.405C220.061 445.782 222.315 447.716 223.974 450.205C225.634 452.695 226.549 455.618 226.719 458.976H215.346C215.025 456.807 214.176 455.062 212.799 453.742C211.441 452.403 209.659 451.733 207.452 451.733C205.585 451.733 203.954 452.242 202.558 453.261C201.181 454.26 200.106 455.722 199.333 457.646C198.559 459.57 198.173 461.899 198.173 464.634C198.173 467.406 198.55 469.764 199.304 471.707C200.078 473.649 201.162 475.13 202.558 476.148C203.954 477.167 205.585 477.676 207.452 477.676C208.829 477.676 210.065 477.393 211.158 476.827C212.271 476.262 213.186 475.441 213.903 474.366C214.638 473.272 215.119 471.961 215.346 470.434H226.719C226.53 473.753 225.625 476.676 224.003 479.204C222.4 481.712 220.183 483.674 217.354 485.088C214.525 486.503 211.177 487.21 207.311 487.21ZM242.131 486.362L230.305 442.906H242.499L249.232 472.103H249.628L256.645 442.906H268.612L275.741 471.933H276.109L282.729 442.906H294.894L283.097 486.362H270.338L262.869 459.032H262.331L254.862 486.362H242.131ZM312.839 487.182C310.066 487.182 307.596 486.701 305.427 485.739C303.258 484.758 301.541 483.316 300.278 481.411C299.033 479.487 298.41 477.091 298.41 474.225C298.41 471.81 298.854 469.783 299.74 468.142C300.626 466.501 301.834 465.181 303.361 464.181C304.889 463.182 306.624 462.427 308.567 461.918C310.528 461.409 312.584 461.05 314.734 460.843C317.262 460.579 319.299 460.334 320.845 460.107C322.392 459.862 323.514 459.504 324.212 459.032C324.91 458.561 325.259 457.863 325.259 456.939V456.769C325.259 454.977 324.693 453.591 323.561 452.61C322.449 451.629 320.864 451.139 318.808 451.139C316.639 451.139 314.914 451.62 313.631 452.582C312.349 453.525 311.5 454.713 311.085 456.146L299.938 455.241C300.504 452.601 301.617 450.318 303.276 448.395C304.936 446.452 307.077 444.962 309.699 443.925C312.339 442.868 315.395 442.34 318.865 442.34C321.279 442.34 323.59 442.623 325.796 443.189C328.022 443.755 329.993 444.632 331.709 445.82C333.444 447.008 334.812 448.536 335.812 450.403C336.811 452.252 337.311 454.468 337.311 457.052V486.362H325.881V480.336H325.542C324.844 481.693 323.91 482.891 322.741 483.929C321.572 484.947 320.166 485.749 318.525 486.333C316.885 486.899 314.989 487.182 312.839 487.182ZM316.29 478.864C318.063 478.864 319.629 478.515 320.987 477.818C322.345 477.101 323.41 476.139 324.184 474.932C324.957 473.725 325.344 472.357 325.344 470.83V466.218C324.966 466.463 324.448 466.69 323.788 466.897C323.146 467.086 322.42 467.265 321.609 467.435C320.798 467.586 319.987 467.727 319.176 467.859C318.365 467.972 317.63 468.076 316.969 468.17C315.555 468.378 314.32 468.708 313.263 469.16C312.207 469.613 311.387 470.226 310.802 470.999C310.217 471.754 309.925 472.697 309.925 473.829C309.925 475.469 310.519 476.724 311.707 477.591C312.914 478.44 314.442 478.864 316.29 478.864ZM345.785 486.362V442.906H357.469V450.488H357.922C358.714 447.791 360.044 445.754 361.911 444.377C363.778 442.981 365.928 442.284 368.361 442.284C368.965 442.284 369.616 442.321 370.314 442.397C371.011 442.472 371.624 442.576 372.152 442.708V453.402C371.587 453.232 370.804 453.082 369.804 452.949C368.805 452.817 367.89 452.751 367.06 452.751C365.287 452.751 363.703 453.138 362.307 453.911C360.93 454.666 359.836 455.722 359.025 457.08C358.233 458.438 357.837 460.003 357.837 461.776V486.362H345.785ZM395.288 487.21C390.818 487.21 386.971 486.305 383.746 484.494C380.539 482.665 378.068 480.081 376.333 476.743C374.598 473.385 373.73 469.415 373.73 464.832C373.73 460.362 374.598 456.439 376.333 453.063C378.068 449.687 380.511 447.055 383.661 445.169C386.829 443.283 390.545 442.34 394.807 442.34C397.674 442.34 400.343 442.802 402.814 443.727C405.304 444.632 407.473 445.999 409.321 447.829C411.188 449.658 412.64 451.959 413.678 454.732C414.715 457.486 415.234 460.711 415.234 464.407V467.718H378.54V460.249H403.889C403.889 458.513 403.512 456.976 402.757 455.637C402.003 454.298 400.956 453.251 399.617 452.497C398.297 451.724 396.76 451.337 395.005 451.337C393.176 451.337 391.554 451.761 390.139 452.61C388.744 453.44 387.65 454.562 386.858 455.977C386.065 457.372 385.66 458.928 385.641 460.645V467.746C385.641 469.896 386.037 471.754 386.829 473.319C387.64 474.885 388.781 476.092 390.253 476.941C391.724 477.789 393.468 478.214 395.486 478.214C396.826 478.214 398.051 478.025 399.164 477.648C400.277 477.271 401.23 476.705 402.022 475.95C402.814 475.196 403.417 474.272 403.832 473.178L414.979 473.913C414.413 476.592 413.253 478.93 411.499 480.93C409.764 482.91 407.52 484.457 404.766 485.569C402.031 486.663 398.872 487.21 395.288 487.21Z" fill="#FFFFFF"/>
<path id="AI Enabling infinite Global Opportunities" d="M31.4547 527.585H29.1882L35.7437 509.732H37.9754L44.5308 527.585H42.2643L36.9293 512.557H36.7898L31.4547 527.585ZM32.2916 520.612H41.4274V522.529H32.2916V520.612ZM49.0317 509.732V527.585H46.8698V509.732H49.0317ZM59.3869 527.585V509.732H70.1617V511.65H61.5488V517.682H69.6037V519.6H61.5488V525.668H70.3011V527.585H59.3869ZM75.3948 519.531V527.585H73.3375V514.196H75.3251V516.288H75.4994C75.8133 515.608 76.2898 515.061 76.9291 514.649C77.5684 514.23 78.3936 514.021 79.4048 514.021C80.3114 514.021 81.1047 514.207 81.7847 514.579C82.4646 514.945 82.9935 515.503 83.3712 516.253C83.749 516.997 83.9379 517.938 83.9379 519.077V527.585H81.8806V519.217C81.8806 518.165 81.6074 517.345 81.0611 516.758C80.5148 516.166 79.7651 515.869 78.812 515.869C78.1553 515.869 77.5684 516.012 77.0511 516.296C76.5397 516.581 76.1358 516.997 75.8394 517.543C75.543 518.089 75.3948 518.752 75.3948 519.531ZM91.1957 527.899C90.3472 527.899 89.5771 527.739 88.8855 527.42C88.194 527.094 87.6448 526.627 87.238 526.016C86.8311 525.4 86.6277 524.656 86.6277 523.785C86.6277 523.018 86.7788 522.396 87.081 521.919C87.3832 521.437 87.7872 521.059 88.2928 520.786C88.7984 520.513 89.3563 520.309 89.9665 520.176C90.5825 520.036 91.2015 519.926 91.8233 519.844C92.6369 519.74 93.2966 519.661 93.8022 519.609C94.3136 519.551 94.6855 519.455 94.918 519.321C95.1563 519.188 95.2754 518.955 95.2754 518.624V518.554C95.2754 517.694 95.04 517.026 94.5693 516.549C94.1044 516.073 93.3983 515.834 92.451 515.834C91.4688 515.834 90.6988 516.049 90.1409 516.479C89.5829 516.91 89.1907 517.369 88.964 517.857L87.0113 517.159C87.36 516.346 87.8249 515.712 88.4061 515.259C88.9931 514.8 89.6323 514.48 90.3239 514.3C91.0213 514.114 91.7071 514.021 92.3812 514.021C92.8113 514.021 93.3053 514.073 93.8632 514.178C94.4269 514.277 94.9703 514.483 95.4933 514.797C96.0222 515.111 96.461 515.584 96.8097 516.218C97.1584 516.851 97.3327 517.7 97.3327 518.763V527.585H95.2754V525.772H95.1708C95.0313 526.063 94.7989 526.374 94.4734 526.705C94.148 527.036 93.715 527.318 93.1745 527.551C92.634 527.783 91.9744 527.899 91.1957 527.899ZM91.5095 526.051C92.3231 526.051 93.0089 525.891 93.5668 525.572C94.1305 525.252 94.5548 524.839 94.8395 524.334C95.1301 523.828 95.2754 523.296 95.2754 522.739V520.856C95.1882 520.96 94.9965 521.056 94.7001 521.143C94.4095 521.225 94.0724 521.297 93.6888 521.361C93.3111 521.419 92.9421 521.472 92.5817 521.518C92.2272 521.559 91.9395 521.594 91.7187 521.623C91.184 521.692 90.6842 521.806 90.2193 521.963C89.7602 522.114 89.3883 522.343 89.1035 522.651C88.8245 522.954 88.685 523.366 88.685 523.889C88.685 524.604 88.9495 525.145 89.4783 525.511C90.013 525.871 90.6901 526.051 91.5095 526.051ZM100.925 527.585V509.732H102.982V516.323H103.156C103.308 516.09 103.517 515.794 103.784 515.433C104.057 515.067 104.447 514.742 104.952 514.457C105.464 514.166 106.155 514.021 107.027 514.021C108.154 514.021 109.148 514.303 110.008 514.867C110.868 515.43 111.54 516.23 112.022 517.264C112.504 518.299 112.746 519.519 112.746 520.925C112.746 522.343 112.504 523.573 112.022 524.613C111.54 525.647 110.871 526.449 110.017 527.019C109.163 527.583 108.178 527.864 107.062 527.864C106.202 527.864 105.513 527.722 104.996 527.437C104.479 527.147 104.081 526.818 103.802 526.452C103.523 526.08 103.308 525.772 103.156 525.528H102.912V527.585H100.925ZM102.947 520.89C102.947 521.902 103.095 522.794 103.392 523.567C103.688 524.334 104.121 524.935 104.691 525.371C105.26 525.801 105.958 526.016 106.783 526.016C107.643 526.016 108.361 525.79 108.936 525.336C109.517 524.877 109.953 524.261 110.244 523.488C110.54 522.71 110.688 521.844 110.688 520.89C110.688 519.949 110.543 519.101 110.252 518.345C109.968 517.584 109.535 516.982 108.954 516.54C108.378 516.093 107.655 515.869 106.783 515.869C105.946 515.869 105.243 516.081 104.673 516.506C104.104 516.924 103.674 517.511 103.383 518.267C103.093 519.016 102.947 519.891 102.947 520.89ZM117.508 509.732V527.585H115.451V509.732H117.508ZM120.834 527.585V514.196H122.892V527.585H120.834ZM121.88 511.964C121.479 511.964 121.134 511.827 120.843 511.554C120.558 511.281 120.416 510.953 120.416 510.569C120.416 510.185 120.558 509.857 120.843 509.584C121.134 509.311 121.479 509.174 121.88 509.174C122.281 509.174 122.624 509.311 122.909 509.584C123.2 509.857 123.345 510.185 123.345 510.569C123.345 510.953 123.2 511.281 122.909 511.554C122.624 511.827 122.281 511.964 121.88 511.964ZM128.275 519.531V527.585H126.218V514.196H128.205V516.288H128.38C128.694 515.608 129.17 515.061 129.809 514.649C130.449 514.23 131.274 514.021 132.285 514.021C133.192 514.021 133.985 514.207 134.665 514.579C135.345 514.945 135.874 515.503 136.252 516.253C136.629 516.997 136.818 517.938 136.818 519.077V527.585H134.761V519.217C134.761 518.165 134.488 517.345 133.941 516.758C133.395 516.166 132.645 515.869 131.692 515.869C131.036 515.869 130.449 516.012 129.931 516.296C129.42 516.581 129.016 516.997 128.72 517.543C128.423 518.089 128.275 518.752 128.275 519.531ZM145.541 532.886C144.547 532.886 143.692 532.758 142.978 532.502C142.263 532.252 141.667 531.921 141.191 531.508C140.72 531.101 140.345 530.666 140.066 530.201L141.705 529.05C141.891 529.294 142.126 529.573 142.411 529.887C142.696 530.206 143.085 530.483 143.579 530.715C144.079 530.953 144.733 531.072 145.541 531.072C146.621 531.072 147.514 530.811 148.217 530.288C148.92 529.765 149.272 528.945 149.272 527.83V525.11H149.097C148.946 525.354 148.731 525.656 148.452 526.016C148.179 526.371 147.784 526.688 147.267 526.967C146.755 527.24 146.064 527.376 145.192 527.376C144.111 527.376 143.14 527.121 142.28 526.609C141.426 526.098 140.749 525.354 140.249 524.377C139.755 523.401 139.508 522.216 139.508 520.821C139.508 519.449 139.749 518.255 140.232 517.238C140.714 516.215 141.385 515.425 142.245 514.867C143.105 514.303 144.099 514.021 145.227 514.021C146.098 514.021 146.79 514.166 147.301 514.457C147.819 514.742 148.214 515.067 148.487 515.433C148.766 515.794 148.981 516.09 149.132 516.323H149.341V514.196H151.329V527.969C151.329 529.12 151.067 530.055 150.544 530.776C150.027 531.502 149.33 532.034 148.452 532.371C147.58 532.714 146.61 532.886 145.541 532.886ZM145.471 525.528C146.296 525.528 146.993 525.339 147.563 524.962C148.132 524.584 148.565 524.04 148.862 523.331C149.158 522.622 149.306 521.774 149.306 520.786C149.306 519.821 149.161 518.97 148.871 518.232C148.58 517.494 148.15 516.915 147.58 516.497C147.011 516.078 146.308 515.869 145.471 515.869C144.599 515.869 143.873 516.09 143.291 516.532C142.716 516.973 142.283 517.566 141.993 518.31C141.708 519.054 141.565 519.879 141.565 520.786C141.565 521.716 141.711 522.538 142.001 523.253C142.298 523.962 142.734 524.52 143.309 524.927C143.89 525.328 144.611 525.528 145.471 525.528ZM161.115 527.585V514.196H163.173V527.585H161.115ZM162.161 511.964C161.76 511.964 161.415 511.827 161.124 511.554C160.839 511.281 160.697 510.953 160.697 510.569C160.697 510.185 160.839 509.857 161.124 509.584C161.415 509.311 161.76 509.174 162.161 509.174C162.562 509.174 162.905 509.311 163.19 509.584C163.481 509.857 163.626 510.185 163.626 510.569C163.626 510.953 163.481 511.281 163.19 511.554C162.905 511.827 162.562 511.964 162.161 511.964ZM168.556 519.531V527.585H166.499V514.196H168.486V516.288H168.661C168.975 515.608 169.451 515.061 170.09 514.649C170.73 514.23 171.555 514.021 172.566 514.021C173.473 514.021 174.266 514.207 174.946 514.579C175.626 514.945 176.155 515.503 176.533 516.253C176.91 516.997 177.099 517.938 177.099 519.077V527.585H175.042V519.217C175.042 518.165 174.769 517.345 174.222 516.758C173.676 516.166 172.926 515.869 171.973 515.869C171.317 515.869 170.73 516.012 170.212 516.296C169.701 516.581 169.297 516.997 169.001 517.543C168.704 518.089 168.556 518.752 168.556 519.531ZM186.379 514.196V515.939H179.161V514.196H186.379ZM181.323 527.585V512.347C181.323 511.58 181.503 510.941 181.864 510.43C182.224 509.918 182.692 509.535 183.267 509.279C183.843 509.023 184.45 508.895 185.089 508.895C185.595 508.895 186.007 508.936 186.327 509.017C186.647 509.099 186.885 509.174 187.042 509.244L186.449 511.022C186.345 510.987 186.199 510.944 186.013 510.892C185.833 510.839 185.595 510.813 185.298 510.813C184.618 510.813 184.127 510.985 183.825 511.327C183.529 511.67 183.381 512.173 183.381 512.836V527.585H181.323ZM188.821 527.585V514.196H190.878V527.585H188.821ZM189.867 511.964C189.466 511.964 189.12 511.827 188.83 511.554C188.545 511.281 188.402 510.953 188.402 510.569C188.402 510.185 188.545 509.857 188.83 509.584C189.12 509.311 189.466 509.174 189.867 509.174C190.268 509.174 190.611 509.311 190.896 509.584C191.186 509.857 191.331 510.185 191.331 510.569C191.331 510.953 191.186 511.281 190.896 511.554C190.611 511.827 190.268 511.964 189.867 511.964ZM196.262 519.531V527.585H194.204V514.196H196.192V516.288H196.366C196.68 515.608 197.157 515.061 197.796 514.649C198.435 514.23 199.26 514.021 200.272 514.021C201.178 514.021 201.972 514.207 202.652 514.579C203.331 514.945 203.86 515.503 204.238 516.253C204.616 516.997 204.805 517.938 204.805 519.077V527.585H202.747V519.217C202.747 518.165 202.474 517.345 201.928 516.758C201.382 516.166 200.632 515.869 199.679 515.869C199.022 515.869 198.435 516.012 197.918 516.296C197.407 516.581 197.003 516.997 196.706 517.543C196.41 518.089 196.262 518.752 196.262 519.531ZM208.122 527.585V514.196H210.18V527.585H208.122ZM209.168 511.964C208.767 511.964 208.422 511.827 208.131 511.554C207.846 511.281 207.704 510.953 207.704 510.569C207.704 510.185 207.846 509.857 208.131 509.584C208.422 509.311 208.767 509.174 209.168 509.174C209.569 509.174 209.912 509.311 210.197 509.584C210.488 509.857 210.633 510.185 210.633 510.569C210.633 510.953 210.488 511.281 210.197 511.554C209.912 511.827 209.569 511.964 209.168 511.964ZM219.329 514.196V515.939H212.39V514.196H219.329ZM214.412 510.987H216.47V523.75C216.47 524.331 216.554 524.767 216.723 525.057C216.897 525.342 217.118 525.534 217.385 525.633C217.658 525.726 217.946 525.772 218.248 525.772C218.475 525.772 218.661 525.761 218.806 525.737C218.951 525.708 219.067 525.685 219.155 525.668L219.573 527.516C219.434 527.568 219.239 527.62 218.989 527.673C218.739 527.731 218.422 527.76 218.039 527.76C217.458 527.76 216.888 527.635 216.33 527.385C215.778 527.135 215.319 526.754 214.953 526.243C214.593 525.732 214.412 525.086 214.412 524.308V510.987ZM227.452 527.864C226.162 527.864 225.049 527.58 224.113 527.01C223.183 526.435 222.466 525.633 221.96 524.604C221.46 523.57 221.21 522.367 221.21 520.995C221.21 519.624 221.46 518.415 221.96 517.369C222.466 516.317 223.169 515.497 224.07 514.91C224.976 514.318 226.034 514.021 227.243 514.021C227.94 514.021 228.629 514.137 229.309 514.37C229.989 514.602 230.608 514.98 231.166 515.503C231.724 516.02 232.168 516.706 232.499 517.56C232.831 518.415 232.996 519.467 232.996 520.716V521.588H222.675V519.81H230.904C230.904 519.054 230.753 518.38 230.451 517.787C230.154 517.194 229.73 516.726 229.178 516.384C228.632 516.041 227.987 515.869 227.243 515.869C226.423 515.869 225.714 516.073 225.116 516.479C224.523 516.88 224.067 517.404 223.747 518.049C223.427 518.694 223.268 519.385 223.268 520.123V521.309C223.268 522.32 223.442 523.177 223.791 523.881C224.145 524.578 224.636 525.11 225.264 525.476C225.892 525.836 226.621 526.016 227.452 526.016C227.992 526.016 228.481 525.941 228.917 525.79C229.358 525.633 229.739 525.4 230.058 525.092C230.378 524.778 230.625 524.389 230.799 523.924L232.787 524.482C232.578 525.156 232.226 525.749 231.732 526.26C231.238 526.766 230.628 527.161 229.902 527.446C229.175 527.725 228.359 527.864 227.452 527.864ZM254.63 515.311C254.438 514.724 254.185 514.198 253.871 513.733C253.563 513.263 253.194 512.862 252.764 512.53C252.34 512.199 251.857 511.946 251.317 511.772C250.777 511.598 250.184 511.511 249.539 511.511C248.481 511.511 247.519 511.784 246.653 512.33C245.787 512.876 245.099 513.681 244.587 514.745C244.076 515.808 243.82 517.113 243.82 518.659C243.82 520.205 244.079 521.509 244.596 522.573C245.113 523.636 245.813 524.441 246.697 524.988C247.58 525.534 248.574 525.807 249.678 525.807C250.701 525.807 251.602 525.589 252.381 525.153C253.165 524.712 253.775 524.09 254.211 523.288C254.653 522.48 254.874 521.53 254.874 520.437L255.536 520.577H250.166V518.659H256.966V520.577C256.966 522.047 256.652 523.326 256.024 524.412C255.403 525.499 254.542 526.342 253.444 526.94C252.351 527.533 251.096 527.83 249.678 527.83C248.097 527.83 246.708 527.458 245.511 526.714C244.32 525.97 243.39 524.912 242.722 523.541C242.059 522.169 241.728 520.542 241.728 518.659C241.728 517.247 241.917 515.977 242.294 514.849C242.678 513.716 243.219 512.751 243.916 511.955C244.613 511.159 245.439 510.549 246.392 510.124C247.345 509.7 248.394 509.488 249.539 509.488C250.48 509.488 251.358 509.63 252.171 509.915C252.991 510.194 253.72 510.592 254.359 511.11C255.004 511.621 255.542 512.234 255.972 512.949C256.402 513.658 256.699 514.445 256.861 515.311H254.63ZM262.005 509.732V527.585H259.948V509.732H262.005ZM270.771 527.864C269.562 527.864 268.502 527.577 267.589 527.001C266.682 526.426 265.973 525.621 265.462 524.587C264.956 523.552 264.704 522.343 264.704 520.96C264.704 519.565 264.956 518.348 265.462 517.308C265.973 516.267 266.682 515.46 267.589 514.884C268.502 514.309 269.562 514.021 270.771 514.021C271.98 514.021 273.037 514.309 273.944 514.884C274.857 515.46 275.566 516.267 276.071 517.308C276.583 518.348 276.838 519.565 276.838 520.96C276.838 522.343 276.583 523.552 276.071 524.587C275.566 525.621 274.857 526.426 273.944 527.001C273.037 527.577 271.98 527.864 270.771 527.864ZM270.771 526.016C271.689 526.016 272.445 525.781 273.037 525.31C273.63 524.839 274.069 524.221 274.354 523.453C274.639 522.686 274.781 521.855 274.781 520.96C274.781 520.065 274.639 519.231 274.354 518.458C274.069 517.685 273.63 517.061 273.037 516.584C272.445 516.108 271.689 515.869 270.771 515.869C269.853 515.869 269.097 516.108 268.504 516.584C267.912 517.061 267.473 517.685 267.188 518.458C266.903 519.231 266.761 520.065 266.761 520.96C266.761 521.855 266.903 522.686 267.188 523.453C267.473 524.221 267.912 524.839 268.504 525.31C269.097 525.781 269.853 526.016 270.771 526.016ZM279.816 527.585V509.732H281.873V516.323H282.047C282.199 516.09 282.408 515.794 282.675 515.433C282.948 515.067 283.338 514.742 283.843 514.457C284.355 514.166 285.046 514.021 285.918 514.021C287.045 514.021 288.039 514.303 288.899 514.867C289.759 515.43 290.431 516.23 290.913 517.264C291.395 518.299 291.637 519.519 291.637 520.925C291.637 522.343 291.395 523.573 290.913 524.613C290.431 525.647 289.762 526.449 288.908 527.019C288.054 527.583 287.069 527.864 285.953 527.864C285.093 527.864 284.404 527.722 283.887 527.437C283.37 527.147 282.972 526.818 282.693 526.452C282.414 526.08 282.199 525.772 282.047 525.528H281.803V527.585H279.816ZM281.838 520.89C281.838 521.902 281.986 522.794 282.283 523.567C282.579 524.334 283.012 524.935 283.582 525.371C284.151 525.801 284.849 526.016 285.674 526.016C286.534 526.016 287.252 525.79 287.827 525.336C288.408 524.877 288.844 524.261 289.135 523.488C289.431 522.71 289.579 521.844 289.579 520.89C289.579 519.949 289.434 519.101 289.143 518.345C288.859 517.584 288.426 516.982 287.845 516.54C287.269 516.093 286.546 515.869 285.674 515.869C284.837 515.869 284.134 516.081 283.564 516.506C282.995 516.924 282.565 517.511 282.274 518.267C281.984 519.016 281.838 519.891 281.838 520.89ZM298.282 527.899C297.434 527.899 296.663 527.739 295.972 527.42C295.28 527.094 294.731 526.627 294.324 526.016C293.917 525.4 293.714 524.656 293.714 523.785C293.714 523.018 293.865 522.396 294.167 521.919C294.47 521.437 294.873 521.059 295.379 520.786C295.885 520.513 296.443 520.309 297.053 520.176C297.669 520.036 298.288 519.926 298.91 519.844C299.723 519.74 300.383 519.661 300.889 519.609C301.4 519.551 301.772 519.455 302.004 519.321C302.243 519.188 302.362 518.955 302.362 518.624V518.554C302.362 517.694 302.126 517.026 301.656 516.549C301.191 516.073 300.485 515.834 299.537 515.834C298.555 515.834 297.785 516.049 297.227 516.479C296.669 516.91 296.277 517.369 296.05 517.857L294.098 517.159C294.446 516.346 294.911 515.712 295.492 515.259C296.079 514.8 296.719 514.48 297.41 514.3C298.108 514.114 298.793 514.021 299.468 514.021C299.898 514.021 300.392 514.073 300.95 514.178C301.513 514.277 302.057 514.483 302.58 514.797C303.109 515.111 303.547 515.584 303.896 516.218C304.245 516.851 304.419 517.7 304.419 518.763V527.585H302.362V525.772H302.257C302.118 526.063 301.885 526.374 301.56 526.705C301.234 527.036 300.801 527.318 300.261 527.551C299.72 527.783 299.061 527.899 298.282 527.899ZM298.596 526.051C299.409 526.051 300.095 525.891 300.653 525.572C301.217 525.252 301.641 524.839 301.926 524.334C302.216 523.828 302.362 523.296 302.362 522.739V520.856C302.275 520.96 302.083 521.056 301.786 521.143C301.496 521.225 301.159 521.297 300.775 521.361C300.397 521.419 300.028 521.472 299.668 521.518C299.314 521.559 299.026 521.594 298.805 521.623C298.27 521.692 297.771 521.806 297.306 521.963C296.847 522.114 296.475 522.343 296.19 522.651C295.911 522.954 295.771 523.366 295.771 523.889C295.771 524.604 296.036 525.145 296.565 525.511C297.099 525.871 297.776 526.051 298.596 526.051ZM309.79 509.732V527.585H307.732V509.732H309.79ZM334.921 518.659C334.921 520.542 334.581 522.169 333.901 523.541C333.221 524.912 332.288 525.97 331.103 526.714C329.917 527.458 328.563 527.83 327.04 527.83C325.518 527.83 324.163 527.458 322.978 526.714C321.792 525.97 320.86 524.912 320.18 523.541C319.5 522.169 319.16 520.542 319.16 518.659C319.16 516.776 319.5 515.149 320.18 513.777C320.86 512.406 321.792 511.348 322.978 510.604C324.163 509.86 325.518 509.488 327.04 509.488C328.563 509.488 329.917 509.86 331.103 510.604C332.288 511.348 333.221 512.406 333.901 513.777C334.581 515.149 334.921 516.776 334.921 518.659ZM332.829 518.659C332.829 517.113 332.57 515.808 332.053 514.745C331.541 513.681 330.847 512.876 329.969 512.33C329.098 511.784 328.121 511.511 327.04 511.511C325.959 511.511 324.98 511.784 324.102 512.33C323.231 512.876 322.536 513.681 322.019 514.745C321.508 515.808 321.252 517.113 321.252 518.659C321.252 520.205 321.508 521.509 322.019 522.573C322.536 523.636 323.231 524.441 324.102 524.988C324.98 525.534 325.959 525.807 327.04 525.807C328.121 525.807 329.098 525.534 329.969 524.988C330.847 524.441 331.541 523.636 332.053 522.573C332.57 521.509 332.829 520.205 332.829 518.659ZM337.835 532.607V514.196H339.823V516.323H340.067C340.218 516.09 340.427 515.794 340.694 515.433C340.968 515.067 341.357 514.742 341.863 514.457C342.374 514.166 343.066 514.021 343.937 514.021C345.065 514.021 346.059 514.303 346.919 514.867C347.779 515.43 348.45 516.23 348.932 517.264C349.415 518.299 349.656 519.519 349.656 520.925C349.656 522.343 349.415 523.573 348.932 524.613C348.45 525.647 347.782 526.449 346.927 527.019C346.073 527.583 345.088 527.864 343.972 527.864C343.112 527.864 342.423 527.722 341.906 527.437C341.389 527.147 340.991 526.818 340.712 526.452C340.433 526.08 340.218 525.772 340.067 525.528H339.892V532.607H337.835ZM339.858 520.89C339.858 521.902 340.006 522.794 340.302 523.567C340.598 524.334 341.031 524.935 341.601 525.371C342.171 525.801 342.868 526.016 343.693 526.016C344.553 526.016 345.271 525.79 345.846 525.336C346.428 524.877 346.863 524.261 347.154 523.488C347.45 522.71 347.599 521.844 347.599 520.89C347.599 519.949 347.453 519.101 347.163 518.345C346.878 517.584 346.445 516.982 345.864 516.54C345.288 516.093 344.565 515.869 343.693 515.869C342.856 515.869 342.153 516.081 341.584 516.506C341.014 516.924 340.584 517.511 340.293 518.267C340.003 519.016 339.858 519.891 339.858 520.89ZM352.352 532.607V514.196H354.34V516.323H354.584C354.735 516.09 354.944 515.794 355.212 515.433C355.485 515.067 355.874 514.742 356.38 514.457C356.891 514.166 357.583 514.021 358.454 514.021C359.582 514.021 360.576 514.303 361.436 514.867C362.296 515.43 362.967 516.23 363.45 517.264C363.932 518.299 364.173 519.519 364.173 520.925C364.173 522.343 363.932 523.573 363.45 524.613C362.967 525.647 362.299 526.449 361.445 527.019C360.59 527.583 359.605 527.864 358.489 527.864C357.629 527.864 356.941 527.722 356.423 527.437C355.906 527.147 355.508 526.818 355.229 526.452C354.95 526.08 354.735 525.772 354.584 525.528H354.41V532.607H352.352ZM354.375 520.89C354.375 521.902 354.523 522.794 354.819 523.567C355.116 524.334 355.549 524.935 356.118 525.371C356.688 525.801 357.385 526.016 358.21 526.016C359.07 526.016 359.788 525.79 360.364 525.336C360.945 524.877 361.381 524.261 361.671 523.488C361.968 522.71 362.116 521.844 362.116 520.89C362.116 519.949 361.97 519.101 361.68 518.345C361.395 517.584 360.962 516.982 360.381 516.54C359.806 516.093 359.082 515.869 358.21 515.869C357.373 515.869 356.67 516.081 356.101 516.506C355.531 516.924 355.101 517.511 354.811 518.267C354.52 519.016 354.375 519.891 354.375 520.89ZM372.309 527.864C371.1 527.864 370.04 527.577 369.127 527.001C368.221 526.426 367.512 525.621 367 524.587C366.495 523.552 366.242 522.343 366.242 520.96C366.242 519.565 366.495 518.348 367 517.308C367.512 516.267 368.221 515.46 369.127 514.884C370.04 514.309 371.1 514.021 372.309 514.021C373.518 514.021 374.576 514.309 375.482 514.884C376.395 515.46 377.104 516.267 377.609 517.308C378.121 518.348 378.376 519.565 378.376 520.96C378.376 522.343 378.121 523.552 377.609 524.587C377.104 525.621 376.395 526.426 375.482 527.001C374.576 527.577 373.518 527.864 372.309 527.864ZM372.309 526.016C373.227 526.016 373.983 525.781 374.576 525.31C375.168 524.839 375.607 524.221 375.892 523.453C376.177 522.686 376.319 521.855 376.319 520.96C376.319 520.065 376.177 519.231 375.892 518.458C375.607 517.685 375.168 517.061 374.576 516.584C373.983 516.108 373.227 515.869 372.309 515.869C371.391 515.869 370.635 516.108 370.043 516.584C369.45 517.061 369.011 517.685 368.726 518.458C368.442 519.231 368.299 520.065 368.299 520.96C368.299 521.855 368.442 522.686 368.726 523.453C369.011 524.221 369.45 524.839 370.043 525.31C370.635 525.781 371.391 526.016 372.309 526.016ZM381.075 527.585V514.196H383.063V516.218H383.202C383.446 515.555 383.888 515.018 384.527 514.605C385.166 514.193 385.887 513.986 386.689 513.986C386.84 513.986 387.029 513.989 387.256 513.995C387.482 514.001 387.654 514.01 387.77 514.021V516.113C387.7 516.096 387.54 516.07 387.291 516.035C387.046 515.994 386.788 515.974 386.515 515.974C385.864 515.974 385.283 516.11 384.771 516.384C384.266 516.651 383.865 517.023 383.568 517.499C383.278 517.97 383.132 518.508 383.132 519.112V527.585H381.075ZM396.429 514.196V515.939H389.49V514.196H396.429ZM391.513 510.987H393.57V523.75C393.57 524.331 393.654 524.767 393.823 525.057C393.997 525.342 394.218 525.534 394.485 525.633C394.758 525.726 395.046 525.772 395.348 525.772C395.575 525.772 395.761 525.761 395.906 525.737C396.051 525.708 396.168 525.685 396.255 525.668L396.673 527.516C396.534 527.568 396.339 527.62 396.089 527.673C395.839 527.731 395.523 527.76 395.139 527.76C394.558 527.76 393.988 527.635 393.43 527.385C392.878 527.135 392.419 526.754 392.053 526.243C391.693 525.732 391.513 525.086 391.513 524.308V510.987ZM407.52 522.111V514.196H409.578V527.585H407.52V525.319H407.381C407.067 525.999 406.579 526.577 405.916 527.054C405.254 527.524 404.417 527.76 403.406 527.76C402.569 527.76 401.825 527.577 401.174 527.211C400.523 526.839 400.012 526.281 399.64 525.537C399.268 524.787 399.082 523.843 399.082 522.704V514.196H401.139V522.564C401.139 523.541 401.412 524.319 401.959 524.9C402.511 525.482 403.214 525.772 404.068 525.772C404.58 525.772 405.1 525.641 405.629 525.38C406.163 525.118 406.611 524.717 406.971 524.177C407.337 523.636 407.52 522.948 407.52 522.111ZM414.961 519.531V527.585H412.904V514.196H414.891V516.288H415.066C415.38 515.608 415.856 515.061 416.495 514.649C417.135 514.23 417.96 514.021 418.971 514.021C419.878 514.021 420.671 514.207 421.351 514.579C422.031 514.945 422.56 515.503 422.938 516.253C423.315 516.997 423.504 517.938 423.504 519.077V527.585H421.447V519.217C421.447 518.165 421.174 517.345 420.628 516.758C420.081 516.166 419.332 515.869 418.378 515.869C417.722 515.869 417.135 516.012 416.618 516.296C416.106 516.581 415.702 516.997 415.406 517.543C415.109 518.089 414.961 518.752 414.961 519.531ZM426.822 527.585V514.196H428.879V527.585H426.822ZM427.868 511.964C427.467 511.964 427.121 511.827 426.831 511.554C426.546 511.281 426.403 510.953 426.403 510.569C426.403 510.185 426.546 509.857 426.831 509.584C427.121 509.311 427.467 509.174 427.868 509.174C428.269 509.174 428.612 509.311 428.897 509.584C429.187 509.857 429.332 510.185 429.332 510.569C429.332 510.953 429.187 511.281 428.897 511.554C428.612 511.827 428.269 511.964 427.868 511.964ZM438.029 514.196V515.939H431.09V514.196H438.029ZM433.112 510.987H435.169V523.75C435.169 524.331 435.254 524.767 435.422 525.057C435.596 525.342 435.817 525.534 436.085 525.633C436.358 525.726 436.645 525.772 436.948 525.772C437.174 525.772 437.36 525.761 437.506 525.737C437.651 525.708 437.767 525.685 437.854 525.668L438.273 527.516C438.133 527.568 437.938 527.62 437.689 527.673C437.439 527.731 437.122 527.76 436.738 527.76C436.157 527.76 435.588 527.635 435.03 527.385C434.478 527.135 434.019 526.754 433.652 526.243C433.292 525.732 433.112 525.086 433.112 524.308V510.987ZM440.681 527.585V514.196H442.739V527.585H440.681ZM441.727 511.964C441.326 511.964 440.981 511.827 440.69 511.554C440.405 511.281 440.263 510.953 440.263 510.569C440.263 510.185 440.405 509.857 440.69 509.584C440.981 509.311 441.326 509.174 441.727 509.174C442.128 509.174 442.471 509.311 442.756 509.584C443.047 509.857 443.192 510.185 443.192 510.569C443.192 510.953 443.047 511.281 442.756 511.554C442.471 511.827 442.128 511.964 441.727 511.964ZM451.679 527.864C450.389 527.864 449.276 527.58 448.34 527.01C447.41 526.435 446.693 525.633 446.187 524.604C445.687 523.57 445.437 522.367 445.437 520.995C445.437 519.624 445.687 518.415 446.187 517.369C446.693 516.317 447.396 515.497 448.297 514.91C449.203 514.318 450.261 514.021 451.47 514.021C452.167 514.021 452.856 514.137 453.536 514.37C454.216 514.602 454.835 514.98 455.393 515.503C455.95 516.02 456.395 516.706 456.726 517.56C457.058 518.415 457.223 519.467 457.223 520.716V521.588H446.902V519.81H455.131C455.131 519.054 454.98 518.38 454.678 517.787C454.381 517.194 453.957 516.726 453.405 516.384C452.859 516.041 452.214 515.869 451.47 515.869C450.65 515.869 449.941 516.073 449.343 516.479C448.75 516.88 448.294 517.404 447.974 518.049C447.654 518.694 447.495 519.385 447.495 520.123V521.309C447.495 522.32 447.669 523.177 448.018 523.881C448.372 524.578 448.863 525.11 449.491 525.476C450.119 525.836 450.848 526.016 451.679 526.016C452.219 526.016 452.708 525.941 453.143 525.79C453.585 525.633 453.966 525.4 454.285 525.092C454.605 524.778 454.852 524.389 455.026 523.924L457.014 524.482C456.805 525.156 456.453 525.749 455.959 526.26C455.465 526.766 454.855 527.161 454.129 527.446C453.402 527.725 452.586 527.864 451.679 527.864ZM469.395 517.194L467.547 517.717C467.431 517.409 467.26 517.11 467.033 516.819C466.812 516.523 466.51 516.279 466.126 516.087C465.743 515.895 465.252 515.8 464.653 515.8C463.834 515.8 463.151 515.988 462.605 516.366C462.064 516.738 461.794 517.212 461.794 517.787C461.794 518.299 461.98 518.702 462.352 518.999C462.724 519.295 463.305 519.542 464.095 519.74L466.083 520.228C467.28 520.519 468.172 520.963 468.759 521.562C469.346 522.155 469.64 522.919 469.64 523.854C469.64 524.622 469.419 525.307 468.977 525.912C468.541 526.516 467.931 526.993 467.146 527.341C466.362 527.69 465.449 527.864 464.409 527.864C463.043 527.864 461.913 527.568 461.018 526.975C460.123 526.382 459.556 525.517 459.318 524.377L461.271 523.889C461.457 524.61 461.808 525.15 462.326 525.511C462.849 525.871 463.532 526.051 464.374 526.051C465.333 526.051 466.094 525.848 466.658 525.441C467.228 525.028 467.512 524.534 467.512 523.959C467.512 523.494 467.35 523.105 467.024 522.791C466.699 522.471 466.199 522.233 465.525 522.076L463.293 521.553C462.067 521.262 461.166 520.812 460.591 520.202C460.021 519.586 459.737 518.816 459.737 517.892C459.737 517.136 459.949 516.468 460.373 515.887C460.803 515.306 461.387 514.849 462.125 514.518C462.869 514.187 463.712 514.021 464.653 514.021C465.978 514.021 467.019 514.312 467.774 514.893C468.535 515.474 469.076 516.241 469.395 517.194Z" fill="rgba(255,255,255,0.55)"/>
</g>
<defs>
<linearGradient id="paint0_linear_0_1" x1="183.485" y1="83.5188" x2="183.485" y2="289.8" gradientUnits="userSpaceOnUse">
<stop stop-color="#016DB5"/>
<stop offset="1" stop-color="#001627"/>
</linearGradient>
<radialGradient id="paint1_radial_0_1" cx="0" cy="0" r="1" gradientUnits="userSpaceOnUse" gradientTransform="translate(156.839 329.965) rotate(89.8831) scale(49.3149 135.872)">
<stop stop-color="#015186"/>
<stop offset="1" stop-color="#001D55"/>
</radialGradient>
<linearGradient id="paint2_linear_0_1" x1="437.698" y1="269.334" x2="288.875" y2="235.761" gradientUnits="userSpaceOnUse">
<stop stop-color="#00EFC8"/>
<stop offset="1" stop-color="#009A9A"/>
</linearGradient>
</defs>
</svg>
